# xmcd
# 
# Track frame offsets:
#     150
#     27350
#     47262
#     63545
#     86772
#     111507
#     130245
#     152587
#     172877
#     193907
#     206610
# 
# Disc length: 3041
# 
# Revision: 4
# Processed by: cddbd v1.5.2PL0 Copyright (c) Steve Scherf et al.
# Submitted via: BonkEnc v1.0.8
# 
DISCID=950bdf0b
DTITLE=Cerati - Melero - Colores Santos
DYEAR=2001
DGENRE=Latino Rock (Argentina)
TTITLE0=Vuelta Por El Universo
TTITLE1=Marea De Venus
TTITLE2=Cozumel
TTITLE3=Quatro
TTITLE4=Pudo Ser
TTITLE5=Hoy Ya No Soy Yo
TTITLE6=La Cuerda Planetaria
TTITLE7=Madre Tierra
TTITLE8=Tu Medicina
TTITLE9=Alborada
TTITLE10=Colores Santos
EXTD=YEAR: 2001
EXTT0=
EXTT1=
EXTT2=
EXTT3=
EXTT4=
EXTT5=
EXTT6=
EXTT7=
EXTT8=
EXTT9=
EXTT10=
PLAYORDER=
